<svg width="35" height="35" viewBox="0 0 35 35" fill="none" xmlns="http://www.w3.org/2000/svg">
<circle cx="17.5" cy="17.5001" r="15.4808" fill="white" fill-opacity="0.1"/>
<path d="M14.5833 19.8333L23.1875 11.2292C23.4549 10.9618 23.7951 10.8281 24.2083 10.8281C24.6215 10.8281 24.9618 10.9618 25.2292 11.2292C25.4965 11.4965 25.6302 11.8368 25.6302 12.25C25.6302 12.6632 25.4965 13.0035 25.2292 13.2708L15.6042 22.8958C15.3125 23.1875 14.9722 23.3333 14.5833 23.3333C14.1944 23.3333 13.8542 23.1875 13.5625 22.8958L9.77083 19.1042C9.50347 18.8368 9.36979 18.4965 9.36979 18.0833C9.36979 17.6701 9.50347 17.3299 9.77083 17.0625C10.0382 16.7951 10.3785 16.6615 10.7917 16.6615C11.2049 16.6615 11.5451 16.7951 11.8125 17.0625L14.5833 19.8333Z" fill="white"/>
</svg>
